<?xml version="1.0" encoding="UTF-8"?>
<svg width="18px" height="18px" viewBox="0 0 18 18" version="1.1" xmlns="http://www.w3.org/2000/svg" xmlns:xlink="http://www.w3.org/1999/xlink">
    <!-- Generator: Sketch 52.6 (67491) - http://www.bohemiancoding.com/sketch -->
    <title>noun_Calendar_1585330</title>
    <desc>Created with Sketch.</desc>
    <g id="registration" stroke="none" stroke-width="1" fill="none" fill-rule="evenodd">
        <g id="SC_dashboard_registration-1-Copy" transform="translate(-1091.000000, -510.000000)" fill="#bdbdbd">
            <g id="noun_Calendar_1585330" transform="translate(1091.000000, 510.000000)">
                <g id="Group">
                    <path d="M16.153,1.847 L13.043,1.847 L13.043,0.603 C13.043,0.431 12.904,0.292 12.732,0.292 C12.56,0.292 12.421,0.431 12.421,0.603 L12.421,3.402 C12.421,3.574 12.56,3.713 12.732,3.713 C12.904,3.713 13.043,3.574 13.043,3.402 L13.043,2.469 L16.153,2.469 C16.668,2.469 17.086,2.888 17.086,3.402 L17.086,6.201 L0.914,6.201 L0.914,3.402 C0.914,2.887 1.333,2.469 1.847,2.469 L4.335,2.469 L4.335,1.847 L1.847,1.847 C0.99,1.847 0.292,2.545 0.292,3.402 L0.292,16.153 C0.292,17.01 0.99,17.708 1.847,17.708 L16.154,17.708 C17.011,17.708 17.709,17.01 17.709,16.153 L17.709,3.402 C17.708,2.544 17.011,1.847 16.153,1.847 Z M17.086,16.153 C17.086,16.668 16.667,17.086 16.153,17.086 L1.847,17.086 C1.332,17.086 0.914,16.667 0.914,16.153 L0.914,6.823 L17.087,6.823 L17.087,16.153 L17.086,16.153 Z" id="Shape" fill-rule="nonzero"></path>
                    <path d="M5.268,3.713 C5.44,3.713 5.579,3.574 5.579,3.402 L5.579,2.469 L11.799,2.469 L11.799,1.847 L5.579,1.847 L5.579,0.603 C5.579,0.431 5.44,0.292 5.268,0.292 C5.096,0.292 4.957,0.431 4.957,0.603 L4.957,3.402 C4.957,3.574 5.096,3.713 5.268,3.713 Z" id="Path"></path>
                </g>
            </g>
        </g>
    </g>
</svg>