<?xml version="1.0" encoding="UTF-8"?>
<svg width="11px" height="11px" viewBox="0 0 11 11" version="1.1" xmlns="http://www.w3.org/2000/svg" xmlns:xlink="http://www.w3.org/1999/xlink">
    <!-- Generator: Sketch 52.6 (67491) - http://www.bohemiancoding.com/sketch -->
    <title>noun_edit_56997</title>
    <desc>Created with Sketch.</desc>
    <g id="DB-My-Profile-WF---UI" stroke="none" stroke-width="1" fill="none" fill-rule="evenodd">
        <g id="SC_dashboard_WF_myprofile1-Copy-5" transform="translate(-826.000000, -137.000000)" fill="#FFFFFF">
            <g id="Group-4" transform="translate(826.000000, 133.000000)">
                <g id="noun_edit_56997" transform="translate(0.000000, 4.000000)">
                    <g id="Group">
                        <path d="M7.4255,10.846825 L2.49125,10.846825 C1.20225,10.846825 0.15325,9.6932 0.15325,8.275025 L0.15325,2.7247 C0.15325,1.3068 1.202,0.1529 2.49125,0.1529 L5.9255,0.1529 C6.1325,0.1529 6.3005,0.3377 6.3005,0.5654 C6.3005,0.7931 6.1325,0.9779 5.9255,0.9779 L2.49125,0.9779 C1.61575,0.9779 0.90325,1.76165 0.90325,2.7247 L0.90325,8.2753 C0.90325,9.23835 1.61575,10.0221 2.49125,10.0221 L7.4255,10.0221 C8.301,10.0221 9.01325,9.23835 9.01325,8.2753 L9.01325,6.2997 C9.01325,6.072 9.18125,5.8872 9.38825,5.8872 C9.59525,5.8872 9.76325,6.072 9.76325,6.2997 L9.76325,8.2753 C9.76325,9.6932 8.7145,10.846825 7.4255,10.846825 Z" id="Path"></path>
                        <path d="M3.75925,6.11105 C3.66325,6.11105 3.56725,6.0709 3.494,5.990325 C3.3475,5.829175 3.3475,5.5682 3.494,5.40705 L8.2345,0.1925 C8.381,0.03135 8.61825,0.03135 8.76475,0.1925 C8.91125,0.35365 8.91125,0.614625 8.76475,0.775775 L4.0245,5.99005 C3.95125,6.070625 3.85525,6.11105 3.75925,6.11105 Z" id="Path"></path>
                        <path d="M5.75925,8.31105 C5.66325,8.31105 5.56725,8.2709 5.494,8.190325 C5.3475,8.029175 5.3475,7.7682 5.494,7.60705 L10.2345,2.3925 C10.381,2.23135 10.61825,2.23135 10.76475,2.3925 C10.91125,2.55365 10.91125,2.814625 10.76475,2.975775 L6.0245,8.19005 C5.95125,8.270625 5.85525,8.31105 5.75925,8.31105 Z" id="Path"></path>
                        <path d="M5.75925,8.31105 C5.66325,8.31105 5.56725,8.2709 5.494,8.190325 L3.494,5.990325 C3.3475,5.829175 3.3475,5.5682 3.494,5.40705 C3.6405,5.2459 3.87775,5.2459 4.02425,5.40705 L6.02425,7.60705 C6.17075,7.7682 6.17075,8.029175 6.02425,8.190325 C5.95125,8.270625 5.85525,8.31105 5.75925,8.31105 Z" id="Path"></path>
                        <path d="M10.49975,3.0965 C10.40375,3.0965 10.30775,3.05635 10.2345,2.975775 L8.2345,0.775775 C8.088,0.614625 8.088,0.35365 8.2345,0.1925 C8.381,0.03135 8.61825,0.03135 8.76475,0.1925 L10.76475,2.3925 C10.91125,2.55365 10.91125,2.814625 10.76475,2.975775 C10.69175,3.056075 10.59575,3.0965 10.49975,3.0965 Z" id="Path"></path>
                        <path d="M3.75925,8.31105 C3.55225,8.31105 3.38425,8.12625 3.38425,7.89855 L3.38425,5.69855 C3.38425,5.47085 3.55225,5.28605 3.75925,5.28605 C3.96625,5.28605 4.13425,5.47085 4.13425,5.69855 L4.13425,7.89855 C4.13425,8.12625 3.96625,8.31105 3.75925,8.31105 Z" id="Path"></path>
                        <path d="M5.75925,8.31105 L3.75925,8.31105 C3.55225,8.31105 3.38425,8.12625 3.38425,7.89855 C3.38425,7.67085 3.55225,7.48605 3.75925,7.48605 L5.75925,7.48605 C5.96625,7.48605 6.13425,7.67085 6.13425,7.89855 C6.13425,8.12625 5.96625,8.31105 5.75925,8.31105 Z" id="Path"></path>
                    </g>
                </g>
            </g>
        </g>
    </g>
</svg>