<svg id="Layer_1" data-name="Layer 1" xmlns="http://www.w3.org/2000/svg" viewBox="0 0 24 24"><defs><style>.cls-1{fill:#757575;}.cls-2{fill:none;}</style></defs><title>icon</title><path class="cls-1" d="M18.64,22.92a4.7,4.7,0,0,1-.82-.07A21.21,21.21,0,0,1,7.22,17C2.49,12,.39,8.15.8,5.29A5.51,5.51,0,0,1,3.13,1.71a2.52,2.52,0,0,1,3.36.34A14.45,14.45,0,0,1,7.86,3.4,18.93,18.93,0,0,1,10,6.26a2.24,2.24,0,0,1,0,2.11c-.1.14-.27.32-.45.52-.48.51-1.27,1.38-1,1.87a11.61,11.61,0,0,0,1.93,2.55,9.15,9.15,0,0,0,2.17,1.76c.08.06,1,.64,2.41-1.12a1.78,1.78,0,0,1,1.19-.69,4.36,4.36,0,0,1,2.76,1c1.09.67,4.71,3.11,4.13,4.89S21,22.92,18.64,22.92ZM4.59,2.21a1.59,1.59,0,0,0-.88.32,4.52,4.52,0,0,0-1.92,2.9C1.44,7.94,3.5,11.58,7.93,16.24A20.14,20.14,0,0,0,18,21.86c2.87.52,4.07-2.44,4.28-3s-1.76-2.5-3.76-3.75a3.54,3.54,0,0,0-2.06-.82.71.71,0,0,0-.53.32c-2.05,2.55-3.67,1.39-3.74,1.34h0A10.26,10.26,0,0,1,9.83,14a13,13,0,0,1-2.08-2.75c-.65-1.13.46-2.33,1.12-3a5.61,5.61,0,0,0,.38-.43c.19-.26,0-.83-.1-1.06h0a19.7,19.7,0,0,0-2-2.66A11.46,11.46,0,0,0,5.84,2.81h0A2,2,0,0,0,4.59,2.21Z"/><rect class="cls-2" x="0.02" y="0.01" width="24" height="24"/></svg>