<?xml version="1.0" encoding="UTF-8"?>
<svg width="18px" height="23px" viewBox="0 0 18 23" version="1.1" xmlns="http://www.w3.org/2000/svg" xmlns:xlink="http://www.w3.org/1999/xlink">
    <!-- Generator: Sketch 52.6 (67491) - http://www.bohemiancoding.com/sketch -->
    <title>lock</title>
    <desc>Created with Sketch.</desc>
    <g id="DB-My-Profile-WF---UI" stroke="none" stroke-width="1" fill="none" fill-rule="evenodd" opacity="0.404343378">
        <g id="SC_dashboard_WF_myprofile1-Copy-5" transform="translate(-516.000000, -347.000000)" fill="#000000">
            <g id="lock" transform="translate(525.000000, 358.500000) scale(-1, 1) translate(-525.000000, -358.500000) translate(516.000000, 347.000000)">
                <g id="Group">
                    <path d="M17.0505236,10.8556237 C17.0505236,11.3871166 17.0505236,11.9186094 17.0505236,12.4477505 C17.0505236,13.5859918 17.0505236,14.7218814 17.0505236,15.8601227 C17.0505236,16.9184049 17.0505236,17.9766871 17.0505236,19.0326176 C17.0505236,19.3218814 17.0505236,19.6134969 17.0505236,19.9027607 C17.0505236,19.9497955 17.0505236,19.9968303 17.0505236,20.0415133 C17.0505236,20.097955 17.0481675,20.152045 17.0458115,20.2084867 C17.0434555,20.2367076 17.0410995,20.2625767 17.0387435,20.2907975 C17.0387435,20.295501 17.0387435,20.3025562 17.0363874,20.3072597 C17.0293194,20.358998 17.0316754,20.349591 17.0410995,20.2790389 C17.0552356,20.3096115 17.0198953,20.403681 17.0128272,20.4366053 C16.991623,20.5353783 16.9633508,20.6317996 16.9303665,20.7282209 C16.9162304,20.7658487 16.9068063,20.8293456 16.8808901,20.8599182 C16.9397906,20.7917178 16.9068063,20.8058282 16.8832461,20.8481595 C16.8691099,20.8763804 16.8573298,20.9046012 16.8408377,20.9328221 C16.7960733,21.0198364 16.7442408,21.104499 16.6900524,21.1868098 C16.6782723,21.2056237 16.5958115,21.3255624 16.6358639,21.2644172 C16.6782723,21.1985685 16.6217277,21.2808793 16.6146597,21.2902863 C16.5958115,21.3138037 16.5746073,21.3373211 16.5534031,21.3608384 C16.4921466,21.4290389 16.426178,21.4948875 16.3554974,21.5583845 C16.3295812,21.5819018 16.2730366,21.6501022 16.2376963,21.6571575 C16.2824607,21.6477505 16.3036649,21.607771 16.2589005,21.6406953 C16.2282723,21.6618609 16.2,21.6830266 16.1693717,21.7018405 C16.086911,21.7559305 16.0020942,21.805317 15.9125654,21.85 C15.8937173,21.859407 15.8748691,21.8688139 15.8560209,21.8782209 C15.8442408,21.8852761 15.7641361,21.9346626 15.8253927,21.8923313 C15.8866492,21.8523517 15.8089005,21.8993865 15.7947644,21.90409 C15.7641361,21.9158487 15.7358639,21.9252556 15.7052356,21.9370143 C15.6157068,21.9675869 15.521466,21.993456 15.4295812,22.0122699 C15.4013089,22.0193252 15.297644,22.0522495 15.2717277,22.0404908 C15.3,22.0522495 15.3659686,22.0310838 15.3,22.0357873 C15.2670157,22.0381391 15.2340314,22.0428425 15.2010471,22.0451943 C15.0455497,22.0546012 14.8876963,22.0498978 14.7298429,22.0498978 C13.9806283,22.0498978 13.2337696,22.0498978 12.484555,22.0498978 C11.3324607,22.0498978 10.1827225,22.0498978 9.03062827,22.0498978 C7.87617801,22.0498978 6.71937173,22.0498978 5.56492147,22.0498978 C4.80628272,22.0498978 4.04528796,22.0498978 3.28664921,22.0498978 C3.15471204,22.0498978 3.02277487,22.0522495 2.8908377,22.0498978 C2.84136126,22.047546 2.79188482,22.0451943 2.74240838,22.0404908 C2.72591623,22.0381391 2.67408377,22.0428425 2.66230366,22.0310838 C2.68586387,22.0498978 2.75418848,22.0451943 2.69057592,22.0334356 C2.58455497,22.0146217 2.48089005,21.993456 2.37958115,21.9628834 C2.33010471,21.948773 2.27827225,21.9323108 2.22879581,21.9134969 C2.20994764,21.9064417 2.18874346,21.8993865 2.16989529,21.8899796 C2.06623037,21.8523517 2.26413613,21.9370143 2.16753927,21.8876278 C2.07329843,21.840593 1.98141361,21.79591 1.89188482,21.7394683 C1.85183246,21.7159509 1.81413613,21.6900818 1.77408377,21.6618609 C1.75994764,21.652454 1.71518325,21.6312883 1.7104712,21.6171779 C1.7104712,21.6195297 1.8,21.6900818 1.73167539,21.6336401 C1.65157068,21.5677914 1.57617801,21.499591 1.50314136,21.4243354 C1.46780105,21.3867076 1.43246073,21.3490798 1.39947644,21.3091002 C1.38534031,21.292638 1.37356021,21.2761759 1.35942408,21.2620654 C1.29109948,21.1821063 1.40183246,21.3279141 1.36649215,21.2714724 C1.31230366,21.1821063 1.2486911,21.1021472 1.19685864,21.0104294 C1.17329843,20.9704499 1.15209424,20.9281186 1.13089005,20.8857873 C1.11910995,20.8622699 1.10968586,20.8364008 1.09790576,20.8152352 C1.06492147,20.7564417 1.14031414,20.9234151 1.1026178,20.8269939 C1.06492147,20.7282209 1.02958115,20.6294479 1.00366492,20.5259714 C0.989528796,20.4742331 0.977748691,20.4224949 0.968324607,20.3707566 C0.963612565,20.349591 0.961256545,20.3284254 0.956544503,20.3072597 C0.940052356,20.2178937 0.956544503,20.3331288 0.958900524,20.3354806 C0.937696335,20.3143149 0.947120419,20.206135 0.944764398,20.1732106 C0.942408377,20.1285276 0.942408377,20.0838446 0.942408377,20.0415133 C0.942408377,20.0015337 0.942408377,19.9592025 0.942408377,19.9192229 C0.942408377,19.6393661 0.942408377,19.3571575 0.942408377,19.0773006 C0.942408377,18.0284254 0.942408377,16.9771984 0.942408377,15.9283231 C0.942408377,14.7853783 0.942408377,13.6447853 0.942408377,12.5018405 C0.942408377,11.9538855 0.940052356,11.4035787 0.942408377,10.8556237 C0.942408377,10.7897751 0.944764398,10.7239264 0.94947644,10.6580777 C0.951832461,10.6298569 0.954188482,10.6039877 0.956544503,10.5781186 C0.963612565,10.5075665 0.935340314,10.6980573 0.954188482,10.5898773 C0.963612565,10.5381391 0.973036649,10.4840491 0.984816754,10.4323108 C1.00837696,10.3288344 1.03900524,10.2277096 1.07434555,10.1289366 C1.08141361,10.1101227 1.08848168,10.0889571 1.09790576,10.0701431 C1.13089005,9.98548057 1.08612565,10.0936605 1.08612565,10.0960123 C1.07670157,10.0724949 1.15445026,9.95255624 1.16858639,9.92668712 C1.21335079,9.84437628 1.26282723,9.76441718 1.31465969,9.68680982 C1.32879581,9.66564417 1.34764398,9.64447853 1.35942408,9.62331288 C1.3947644,9.56687117 1.28403141,9.71267894 1.35235602,9.63271984 C1.38534031,9.59274029 1.41832461,9.55276074 1.45366492,9.51513292 C1.51963351,9.44222904 1.59031414,9.37402863 1.66570681,9.3105317 C1.68455497,9.29406953 1.70575916,9.27760736 1.72460733,9.26114519 C1.79057592,9.20470348 1.70340314,9.27290389 1.70340314,9.27760736 C1.71282723,9.2493865 1.81884817,9.19529652 1.8447644,9.17883436 C1.92722513,9.12474438 2.01439791,9.07535787 2.1039267,9.03302658 C2.12277487,9.02361963 2.14162304,9.01656442 2.1604712,9.00715746 C2.25471204,8.9601227 2.08507853,9.03537832 2.1486911,9.01186094 C2.20287958,8.9906953 2.25706806,8.96952965 2.31125654,8.95306748 C2.40314136,8.92249489 2.49502618,8.89897751 2.58926702,8.8801636 C2.61989529,8.87310838 2.65287958,8.86840491 2.68350785,8.86370143 C2.71884817,8.85664622 2.7565445,8.86840491 2.6552356,8.86605317 C2.71413613,8.86605317 2.77539267,8.85429448 2.83429319,8.85194274 C2.89790576,8.849591 2.9591623,8.849591 3.02277487,8.849591 C3.61649215,8.849591 4.21020942,8.849591 4.80157068,8.849591 C5.89240838,8.849591 6.98324607,8.849591 8.07408377,8.849591 C9.26151832,8.849591 10.4489529,8.849591 11.6363874,8.849591 C12.5316754,8.849591 13.4246073,8.849591 14.3198953,8.849591 C14.5319372,8.849591 14.741623,8.849591 14.9536649,8.849591 C15.0125654,8.849591 15.071466,8.849591 15.1303665,8.85194274 C15.184555,8.85429448 15.2387435,8.85899796 15.2929319,8.86370143 C15.3565445,8.86840491 15.2929319,8.84723926 15.2646597,8.85899796 C15.2787958,8.85194274 15.3259162,8.86840491 15.3447644,8.87310838 C15.4507853,8.89192229 15.5520942,8.91779141 15.6557592,8.95071575 C15.7005236,8.96482618 15.745288,8.98128834 15.7900524,8.99775051 C15.8065445,9.00480573 15.8819372,9.04948875 15.8206806,9.0095092 C15.7570681,8.96717791 15.8371728,9.01891616 15.8513089,9.02361963 C15.9455497,9.06830266 16.0374346,9.11768916 16.1246073,9.17413088 C16.1646597,9.2 16.202356,9.22586912 16.2400524,9.25173824 C16.2895288,9.28701431 16.2989529,9.25879346 16.2306283,9.24468303 C16.2424084,9.24703476 16.2683246,9.27525562 16.2801047,9.28466258 C16.3554974,9.34815951 16.428534,9.41400818 16.4945026,9.48456033 C16.5274869,9.51748466 16.5581152,9.55276074 16.5887435,9.58803681 C16.6052356,9.60685072 16.6217277,9.62801636 16.6382199,9.64683027 C16.6829843,9.69621677 16.5722513,9.55276074 16.6311518,9.63742331 C16.6853403,9.71503067 16.7371728,9.7902863 16.7842932,9.87259714 C16.8102094,9.91728016 16.8337696,9.96431493 16.8573298,10.0113497 C16.8667539,10.0301636 16.873822,10.0489775 16.8832461,10.0677914 C16.9303665,10.1618609 16.8549738,9.99253579 16.878534,10.0560327 C16.9138743,10.1501022 16.9492147,10.2441718 16.9751309,10.340593 C16.986911,10.3876278 16.9986911,10.4323108 17.0081152,10.4793456 C17.0151832,10.5075665 17.0458115,10.5945808 17.0340314,10.6228016 C17.0316754,10.601636 17.0293194,10.5828221 17.0246073,10.5616564 C17.0269634,10.5781186 17.0293194,10.5945808 17.0293194,10.6110429 C17.0316754,10.6392638 17.0340314,10.6651329 17.0363874,10.6933538 C17.0481675,10.745092 17.0505236,10.799182 17.0505236,10.8556237 C17.0528796,11.1025562 17.2649215,11.3377301 17.5217277,11.3259714 C17.776178,11.3142127 17.995288,11.1190184 17.9929319,10.8556237 C17.9858639,9.88200409 17.5028796,8.9906953 16.7112565,8.42862986 C16.2117801,8.07351738 15.5992147,7.90654397 14.9890052,7.90654397 C14.4094241,7.90654397 13.8274869,7.90654397 13.2479058,7.90654397 C12.152356,7.90654397 11.0568063,7.90654397 9.96125654,7.90654397 C8.7526178,7.90654397 7.54162304,7.90654397 6.33298429,7.90654397 C5.43298429,7.90654397 4.53062827,7.90654397 3.63062827,7.90654397 C3.42801047,7.90654397 3.22303665,7.90654397 3.02041885,7.90654397 C2.43848168,7.90654397 1.8565445,8.05470348 1.36649215,8.37689162 C0.558376963,8.90603272 0.0471204188,9.7902863 0.00942408377,10.7568507 C0.00235602094,10.9308793 0.00706806283,11.104908 0.00706806283,11.2789366 C0.00706806283,12.2102249 0.00706806283,13.1415133 0.00706806283,14.0728016 C0.00706806283,15.2674847 0.00706806283,16.4621677 0.00706806283,17.6568507 C0.00706806283,18.4164622 0.00706806283,19.1760736 0.00706806283,19.9356851 C0.00706806283,20.4765849 0.115445026,21.0010225 0.381675393,21.4784254 C0.85052356,22.3226994 1.71518325,22.8683027 2.66701571,22.9788344 C2.8578534,23 3.0486911,22.9952965 3.2395288,22.9952965 C3.53874346,22.9952965 3.83795812,22.9952965 4.13717277,22.9952965 C5.14790576,22.9952965 6.15863874,22.9952965 7.16937173,22.9952965 C8.3921466,22.9952965 9.61256545,22.9952965 10.8353403,22.9952965 C11.8460733,22.9952965 12.8568063,22.9952965 13.8675393,22.9952965 C14.1643979,22.9952965 14.4636126,22.9952965 14.7604712,22.9952965 C14.9536649,22.9952965 15.1445026,23 15.3376963,22.9788344 C16.2895288,22.8683027 17.1541885,22.3250511 17.6230366,21.4784254 C17.886911,21.0010225 17.997644,20.4789366 17.997644,19.9356851 C17.997644,19.1807771 17.997644,18.4235174 17.997644,17.6686094 C17.997644,16.4715746 17.997644,15.2721881 17.997644,14.0751534 C17.997644,13.143865 17.997644,12.2125767 17.997644,11.2812883 C17.997644,11.140184 17.997644,10.9990798 17.997644,10.8579755 C17.997644,10.6110429 17.7808901,10.3758691 17.5264398,10.3876278 C17.2672775,10.394683 17.0505236,10.5898773 17.0505236,10.8556237 Z" id="Path"></path>
                    <path d="M13.3445026,5.28670757 C13.3445026,6.18742331 13.3445026,7.08578732 13.3445026,7.98650307 C13.3445026,8.11584867 13.3445026,8.24754601 13.3445026,8.37689162 C13.502356,8.21932515 13.6578534,8.06411043 13.8157068,7.90654397 C13.495288,7.90654397 13.1748691,7.90654397 12.8568063,7.90654397 C12.0887435,7.90654397 11.3206806,7.90654397 10.5526178,7.90654397 C9.62670157,7.90654397 8.70314136,7.90654397 7.77722513,7.90654397 C6.97382199,7.90654397 6.17041885,7.90654397 5.36937173,7.90654397 C4.98062827,7.90654397 4.5895288,7.8900818 4.20314136,7.90654397 C4.19842932,7.90654397 4.19136126,7.90654397 4.18664921,7.90654397 C4.34450262,8.06411043 4.5,8.21932515 4.6578534,8.37689162 C4.6578534,7.6807771 4.6578534,6.98701431 4.6578534,6.2908998 C4.6578534,5.97106339 4.6578534,5.65122699 4.6578534,5.33374233 C4.6578534,5.14325153 4.66492147,4.95276074 4.68612565,4.76226994 C4.68848168,4.74110429 4.6908377,4.71993865 4.69319372,4.69877301 C4.70026178,4.63762781 4.67434555,4.69406953 4.68848168,4.72699387 C4.67905759,4.70347648 4.70026178,4.64233129 4.70497382,4.61646217 C4.71910995,4.53179959 4.73560209,4.44713701 4.75445026,4.36482618 C4.78979058,4.20490798 4.83455497,4.04734151 4.88638743,3.89212679 C4.90994764,3.82157464 4.93586387,3.75337423 4.9617801,3.68517382 C4.96884817,3.66635992 4.97827225,3.64519427 4.98534031,3.62638037 C4.99947644,3.59110429 4.99240838,3.56288344 4.97356021,3.65224949 C4.98062827,3.61462168 5.00890052,3.57229039 5.02539267,3.53701431 C5.09371728,3.39120654 5.16675393,3.24775051 5.24921466,3.10899796 C5.32696335,2.97494888 5.4117801,2.84560327 5.50366492,2.71860941 C5.51308901,2.70449898 5.5908377,2.59161554 5.55078534,2.65511247 C5.51544503,2.71155419 5.57670157,2.62218814 5.5908377,2.60572597 C5.64267016,2.54222904 5.69685864,2.47873211 5.75104712,2.41758691 C5.85471204,2.30235174 5.96308901,2.19182004 6.07853403,2.08834356 C6.13507853,2.03660532 6.19397906,1.98486708 6.25287958,1.93548057 C6.28115183,1.91196319 6.30942408,1.88844581 6.33769634,1.86728016 C6.35183246,1.85552147 6.37068063,1.83670757 6.38717277,1.82965235 C6.29057592,1.88139059 6.35183246,1.85787321 6.37774869,1.83670757 C6.63455497,1.65092025 6.90314136,1.48394683 7.19057592,1.34989775 C7.22827225,1.33108384 7.26596859,1.31462168 7.30366492,1.29815951 C7.31780105,1.29110429 7.33193717,1.28640082 7.3460733,1.2793456 C7.40497382,1.25347648 7.26125654,1.31226994 7.32015707,1.29110429 C7.39790576,1.2605317 7.47565445,1.2299591 7.55575916,1.20173824 C7.71125654,1.14764826 7.86910995,1.10296524 8.02931937,1.06533742 C8.10235602,1.04887526 8.17539267,1.03241309 8.24842932,1.01830266 C8.2908377,1.01124744 8.33324607,1.00419223 8.37565445,0.997137014 C8.3921466,0.994785276 8.40863874,0.992433538 8.42277487,0.9900818 C8.48403141,0.980674847 8.31910995,1.00184049 8.41099476,0.992433538 C8.58062827,0.973619632 8.74790576,0.959509202 8.91753927,0.957157464 C9.10837696,0.954805726 9.29685864,0.961860941 9.48534031,0.980674847 C9.53010471,0.985378323 9.57486911,0.987730061 9.61963351,0.997137014 C9.5065445,0.97597137 9.6526178,1.00419223 9.68324607,1.00889571 C9.78219895,1.02535787 9.88115183,1.04652352 9.98010471,1.0700409 C10.1638743,1.11237219 10.3429319,1.16646217 10.5196335,1.23231084 C10.5667539,1.24877301 10.6115183,1.26758691 10.6586387,1.28640082 C10.6680628,1.28875256 10.7269634,1.31462168 10.6704188,1.29110429 C10.6115183,1.26758691 10.684555,1.29815951 10.6986911,1.30286299 C10.7882199,1.34284254 10.8777487,1.38517382 10.9649215,1.42985685 C11.134555,1.51687117 11.2971204,1.61564417 11.4549738,1.72147239 C11.5256545,1.76850716 11.5939791,1.8202454 11.6646597,1.87198364 C11.5727749,1.80378323 11.695288,1.89785276 11.7141361,1.91196319 C11.7518325,1.94253579 11.7895288,1.97546012 11.8272251,2.00603272 C11.9709424,2.13067485 12.1052356,2.26237219 12.2324607,2.40347648 C12.2937173,2.47167689 12.3526178,2.5398773 12.4115183,2.61278119 C12.4232984,2.62689162 12.4350785,2.64100204 12.4468586,2.65511247 C12.489267,2.70685072 12.3997382,2.59161554 12.4397906,2.64805726 C12.4680628,2.68803681 12.4986911,2.72566462 12.5269634,2.76564417 C12.6376963,2.9208589 12.7366492,3.08312883 12.828534,3.25010225 C12.8685864,3.32535787 12.9086387,3.40296524 12.9463351,3.4805726 C12.9675393,3.52525562 12.9863874,3.56993865 13.0075916,3.61462168 C13.0193717,3.6404908 13.052356,3.68047035 13.0028796,3.60521472 C13.0146597,3.62402863 13.0217277,3.65224949 13.0311518,3.67341513 C13.1018325,3.85214724 13.160733,4.03793456 13.2102094,4.22372188 C13.2337696,4.31543967 13.2549738,4.40715746 13.273822,4.49887526 C13.2832461,4.54120654 13.2903141,4.58588957 13.2973822,4.6305726 C13.3020942,4.65644172 13.3044503,4.6799591 13.3091623,4.70582822 C13.3209424,4.77638037 13.2950262,4.59059305 13.3115183,4.71288344 C13.3327225,4.89867076 13.3445026,5.09151329 13.3445026,5.28670757 C13.3445026,5.53364008 13.5612565,5.76881391 13.8157068,5.75705521 C14.0701571,5.74529652 14.286911,5.55010225 14.286911,5.28670757 C14.2798429,3.56523517 13.4222513,1.96134969 12.0227749,0.966564417 C10.7151832,0.0352760736 8.97172775,-0.235173824 7.44031414,0.246932515 C6.09502618,0.670245399 4.93115183,1.63445808 4.29267016,2.89498978 C3.95575916,3.5605317 3.76020942,4.28251534 3.72015707,5.02566462 C3.70366492,5.30787321 3.71308901,5.5900818 3.71308901,5.87229039 C3.71308901,6.68834356 3.71308901,7.50674847 3.71308901,8.32280164 C3.71308901,8.34161554 3.71308901,8.36042945 3.71308901,8.37924335 C3.71308901,8.63323108 3.92984293,8.849591 4.18429319,8.849591 C4.50471204,8.849591 4.82513089,8.849591 5.14319372,8.849591 C5.91125654,8.849591 6.67931937,8.849591 7.4473822,8.849591 C8.37329843,8.849591 9.29685864,8.849591 10.2227749,8.849591 C11.026178,8.849591 11.8295812,8.849591 12.6306283,8.849591 C13.0193717,8.849591 13.4104712,8.86134969 13.7968586,8.849591 C13.8015707,8.849591 13.8086387,8.849591 13.8133508,8.849591 C14.067801,8.849591 14.284555,8.63323108 14.284555,8.37924335 C14.284555,7.47852761 14.284555,6.5801636 14.284555,5.67944785 C14.284555,5.55010225 14.284555,5.41840491 14.284555,5.2890593 C14.284555,5.04212679 14.067801,4.80695297 13.8133508,4.81871166 C13.5612565,4.82811861 13.3445026,5.02331288 13.3445026,5.28670757 Z" id="Path"></path>
                    <path d="M9.99424084,15.5402863 C9.99424084,15.5732106 9.99424084,15.606135 9.99188482,15.6390593 C9.99188482,15.6555215 9.9895288,15.6719836 9.98717277,15.6884458 C9.98481675,15.7542945 10.0036649,15.596728 9.99188482,15.6602249 C9.97774869,15.7284254 9.96361257,15.794274 9.94240838,15.8601227 C9.93298429,15.8883436 9.91413613,15.9212679 9.9117801,15.9494888 C9.91884817,15.8765849 9.94240838,15.8836401 9.92120419,15.9236196 C9.91413613,15.9377301 9.90706806,15.9518405 9.9,15.9659509 C9.86937173,16.0270961 9.83167539,16.0811861 9.79633508,16.1376278 C9.7539267,16.2058282 9.86230366,16.0670757 9.78455497,16.1517382 C9.76335079,16.1752556 9.74450262,16.198773 9.72329843,16.2199387 C9.69973822,16.2458078 9.61020942,16.3539877 9.57486911,16.3539877 C9.57486911,16.3539877 9.67146597,16.2881391 9.5960733,16.3351738 C9.58193717,16.3445808 9.57015707,16.351636 9.55837696,16.3610429 C9.53246073,16.3775051 9.5065445,16.3939673 9.47827225,16.4080777 C9.45,16.4221881 9.42408377,16.4362986 9.39581152,16.450409 C9.29685864,16.4997955 9.47120419,16.4245399 9.36282723,16.4621677 C9.3039267,16.4833333 9.24267016,16.4997955 9.17905759,16.5139059 C9.16020942,16.5186094 9.0565445,16.5327198 9.12958115,16.5233129 C9.20026178,16.5162577 9.07303665,16.5256646 9.0447644,16.5280164 C8.97879581,16.5303681 8.91282723,16.5256646 8.84685864,16.5209611 C8.79267016,16.5186094 8.89162304,16.5280164 8.89162304,16.5280164 C8.87748691,16.5233129 8.85863874,16.5233129 8.84450262,16.5186094 C8.80209424,16.5115542 8.76204188,16.4997955 8.71963351,16.4903885 C8.68900524,16.4809816 8.65837696,16.4715746 8.63010471,16.4621677 C8.61832461,16.4574642 8.59947644,16.4457055 8.58534031,16.4457055 C8.59005236,16.4457055 8.66780105,16.4880368 8.62539267,16.4621677 C8.56413613,16.4245399 8.49581152,16.3986708 8.43455497,16.3586912 C8.42041885,16.3492843 8.40863874,16.342229 8.39685864,16.3328221 C8.37565445,16.3187117 8.34973822,16.3187117 8.39450262,16.3328221 C8.43691099,16.3469325 8.41570681,16.351636 8.39450262,16.3304703 C8.38272251,16.3210634 8.37094241,16.3116564 8.3591623,16.2998978 C8.30497382,16.252863 8.25549738,16.2011247 8.20837696,16.1470348 C8.20366492,16.1423313 8.17774869,16.1188139 8.18010471,16.1117587 C8.18010471,16.1070552 8.23429319,16.1917178 8.20837696,16.144683 C8.19188482,16.1141104 8.16832461,16.0858896 8.14947644,16.055317 C8.13298429,16.0294479 8.11884817,16.001227 8.10471204,15.9753579 C8.09764398,15.9612474 8.09057592,15.947137 8.08350785,15.9330266 C8.07408377,15.9142127 8.06230366,15.857771 8.07643979,15.9189162 C8.09057592,15.9871166 8.06701571,15.8906953 8.06230366,15.8718814 C8.05052356,15.8366053 8.04109948,15.8013292 8.03167539,15.7660532 C8.02460733,15.7354806 8.01753927,15.7025562 8.01282723,15.6719836 C7.99633508,15.5920245 8.01989529,15.7637014 8.0104712,15.6531697 C8.00575916,15.5826176 8.00340314,15.5097137 8.00811518,15.4391616 C8.00811518,15.4226994 8.0104712,15.4062372 8.01282723,15.3897751 C8.01518325,15.3356851 8.00575916,15.4344581 8.00575916,15.4344581 C8.01989529,15.4038855 8.01989529,15.3592025 8.02696335,15.3239264 C8.04109948,15.2651329 8.08586387,15.1875256 8.0882199,15.1287321 C8.0882199,15.1310838 8.04816754,15.2133947 8.07172775,15.1687117 C8.07879581,15.1546012 8.08586387,15.1404908 8.09057592,15.1263804 C8.10942408,15.0887526 8.12827225,15.0534765 8.14947644,15.0182004 C8.16596859,14.9923313 8.18246073,14.9664622 8.19895288,14.940593 C8.24371728,14.8676892 8.14240838,15.0017382 8.19895288,14.9382413 C8.2460733,14.8841513 8.29554974,14.8300613 8.3473822,14.7830266 C8.3591623,14.7712679 8.40157068,14.7242331 8.41806283,14.7242331 C8.42277487,14.7242331 8.33795812,14.7783231 8.38507853,14.752454 C8.39921466,14.7453988 8.41099476,14.7336401 8.42277487,14.7265849 C8.48403141,14.6866053 8.54764398,14.653681 8.61125654,14.6207566 C8.68900524,14.5807771 8.53115183,14.6489775 8.61361257,14.6207566 C8.64424084,14.6113497 8.67251309,14.599591 8.70314136,14.590184 C8.73848168,14.5807771 8.77382199,14.5713701 8.81151832,14.5619632 C8.82801047,14.5596115 8.8421466,14.554908 8.85863874,14.5525562 C8.92225131,14.5384458 8.8539267,14.5596115 8.83036649,14.554908 C8.88926702,14.5643149 8.96701571,14.545501 9.02827225,14.545501 C9.06596859,14.545501 9.10366492,14.5502045 9.14371728,14.5525562 C9.19790576,14.554908 9.09895288,14.545501 9.09895288,14.545501 C9.11780105,14.5525562 9.14371728,14.5525562 9.16256545,14.5572597 C9.24031414,14.5737219 9.31570681,14.599591 9.39109948,14.6231084 C9.44293194,14.6395706 9.3486911,14.6066462 9.35104712,14.6042945 C9.35811518,14.6019427 9.40052356,14.6278119 9.40759162,14.6301636 C9.44057592,14.6466258 9.47120419,14.6630879 9.50418848,14.6819018 C9.5395288,14.7030675 9.57251309,14.7289366 9.6078534,14.7501022 C9.65497382,14.7759714 9.56780105,14.7218814 9.57486911,14.7218814 C9.58429319,14.7218814 9.61492147,14.7548057 9.62198953,14.7618609 C9.67617801,14.8088957 9.72801047,14.8606339 9.77513089,14.9147239 C9.77748691,14.9170757 9.81518325,14.9547035 9.81518325,14.9617587 C9.81518325,14.95 9.75863874,14.8817996 9.79633508,14.940593 C9.81518325,14.9711656 9.83638743,14.9993865 9.8552356,15.0323108 C9.87408377,15.0628834 9.89057592,15.0958078 9.90706806,15.1287321 C9.9117801,15.1381391 9.93534031,15.1804703 9.93298429,15.1851738 C9.93534031,15.1781186 9.89764398,15.0887526 9.92120419,15.1593047 C9.9447644,15.2298569 9.96596859,15.300409 9.98246073,15.3733129 C9.98717277,15.3921268 9.98717277,15.4203476 9.99424084,15.4368098 C9.98481675,15.4132924 9.98481675,15.3427403 9.9895288,15.408589 C9.99188482,15.453272 9.99424084,15.4956033 9.99424084,15.5402863 C9.99659686,15.7872188 10.2086387,16.0223926 10.465445,16.0106339 C10.7175393,15.9988753 10.9390052,15.803681 10.9366492,15.5402863 C10.9272251,14.7124744 10.4065445,13.9951943 9.62905759,13.7129857 C8.90104712,13.4472393 8.01753927,13.69182 7.52513089,14.2868098 C7.00445026,14.9194274 6.90549738,15.8224949 7.33664921,16.5327198 C7.76544503,17.240593 8.59240838,17.5839468 9.40052356,17.4287321 C10.2934555,17.259407 10.9272251,16.4268916 10.9366492,15.5379346 C10.9390052,15.291002 10.7175393,15.0558282 10.465445,15.0675869 C10.2086387,15.0816973 9.99659686,15.2768916 9.99424084,15.5402863 Z" id="Path"></path>
                    <path d="M9.47120419,19.1478528 C9.47120419,18.5222904 9.47120419,17.8990798 9.47120419,17.2735174 C9.47120419,17.1841513 9.47120419,17.0924335 9.47120419,17.0030675 C9.47120419,16.756135 9.25445026,16.5209611 9,16.5327198 C8.74554974,16.5444785 8.52879581,16.7396728 8.52879581,17.0030675 C8.52879581,17.6286299 8.52879581,18.2518405 8.52879581,18.8774029 C8.52879581,18.9667689 8.52879581,19.0584867 8.52879581,19.1478528 C8.52879581,19.3947853 8.74554974,19.6299591 9,19.6182004 C9.25445026,19.6064417 9.47120419,19.4112474 9.47120419,19.1478528 Z" id="Path"></path>
                </g>
            </g>
        </g>
    </g>
</svg>