<?xml version="1.0" encoding="UTF-8"?>
<svg width="45px" height="45px" viewBox="0 0 45 45" version="1.1" xmlns="http://www.w3.org/2000/svg" xmlns:xlink="http://www.w3.org/1999/xlink">
    <!-- Generator: Sketch 52.6 (67491) - http://www.bohemiancoding.com/sketch -->
    <title>Group 3</title>
    <desc>Created with Sketch.</desc>
    <g id="DB-Spiceclub-UI-final" stroke="none" stroke-width="1" fill="none" fill-rule="evenodd">
        <g id="SC_dashboard_v3-Copy-15" transform="translate(-747.000000, -139.000000)" fill="#BDBDBD">
            <g id="Group-3" transform="translate(747.000000, 139.000000)">
                <path d="M22.0470652,39.7296425 L28.4155435,42.1560798 L28.4155435,40.4270616 L23.1916304,37.0833244 L24.2911957,21.8505284 L43.0434783,30.6990335 L43.0434783,27.6032675 C40.8570652,26.1028478 30.6811957,19.117033 25.2430435,15.4071507 C24.888913,15.1659599 24.6756522,14.7794735 24.66,14.3474611 L24.2931522,4.99913899 C24.2168478,3.13935467 23.3373913,1.93727533 22.0548913,1.93727533 C21.4473913,1.93727533 20.9817391,2.48358697 20.7586957,2.80904923 C20.3341304,3.42994597 20.0807609,4.26588028 20.0807609,5.04466496 C20.0807609,7.33258712 20.0161957,13.2160923 20.0034783,14.3309943 C19.9995652,14.7542889 19.7951087,15.1465872 19.4409783,15.4013389 L1.95652174,28.0633704 L1.95652174,30.9160084 L20.2255435,22.022946 L21.5667391,37.1811568 L16.0131522,40.4522462 L16.0131522,42.1318639 L22.0470652,39.7296425 Z M14.0566304,45 L14.0566304,40.1219407 C14.0566304,39.645371 14.3148913,39.1978604 14.7277174,38.9547323 L19.5104348,36.1389026 L18.5243478,25.0082872 L0,34.0263039 L0,27.7679359 C0,27.3349549 0.211304348,26.9252212 0.563478261,26.6714381 L18.0508696,14.0084379 C18.0675,12.3869385 18.1242391,7.16598145 18.1242391,5.0456336 C18.1232609,3.87648794 18.4940217,2.66569085 19.1396739,1.72126913 C19.9007609,0.611210367 20.9347826,0 22.0548913,0 C24.4046739,0 26.1283696,2.02348408 26.2477174,4.92261661 L26.6028261,13.9822847 C32.3765217,17.9227027 43.02,25.2301053 44.4247826,26.1948684 C44.7896739,26.4457455 45,26.8486988 45,27.3000839 L45,33.7676776 L26.0373913,24.8203715 L25.226413,36.0788471 L29.7459783,38.9721678 C30.1392391,39.2278882 30.3720652,39.6531201 30.3720652,40.1122543 L30.3720652,44.9767527 L22.0617391,41.8102762 L14.0566304,45 Z" id="Fill-1"></path>
            </g>
        </g>
    </g>
</svg>