<svg id="Layer_1" data-name="Layer 1" xmlns="http://www.w3.org/2000/svg" viewBox="0 0 24 24"><defs><style>.cls-1{fill:#757575;}.cls-2{fill:none;}</style></defs><title>icon</title><path class="cls-1" d="M12,1A11,11,0,1,0,23,12,11,11,0,0,0,12,1Zm0,21A10,10,0,1,1,22,12,10,10,0,0,1,12,22Z"/><path class="cls-1" d="M8.91,6.72a4.17,4.17,0,0,1,3.2-1.25,4.24,4.24,0,0,1,3,1.07,3.53,3.53,0,0,1,1.13,2.71,2.88,2.88,0,0,1-.41,1.63,12.08,12.08,0,0,1-1.68,1.83A5.47,5.47,0,0,0,13,14.2a4.45,4.45,0,0,0-.28,1.8H11a6.23,6.23,0,0,1,.32-2.18,5.83,5.83,0,0,1,1.43-1.89l.77-.75a3.5,3.5,0,0,0,.57-.67,2.34,2.34,0,0,0,.39-1.28,2.41,2.41,0,0,0-.57-1.6A2.26,2.26,0,0,0,12.05,7,2.29,2.29,0,0,0,9.82,8.12,4.58,4.58,0,0,0,9.42,10H7.74A4.59,4.59,0,0,1,8.91,6.72ZM11,17h2v2H11Z"/><rect class="cls-2" x="-0.06" y="0.02" width="24" height="24"/></svg>