<?xml version="1.0" encoding="UTF-8"?>
<svg width="49px" height="49px" viewBox="0 0 49 49" version="1.1" xmlns="http://www.w3.org/2000/svg" xmlns:xlink="http://www.w3.org/1999/xlink">
    <!-- Generator: Sketch 52.6 (67491) - http://www.bohemiancoding.com/sketch -->
    <title>PROFILE</title>
    <desc>Created with Sketch.</desc>
    <g id="DB-My-Profile-WF---UI" stroke="none" stroke-width="1" fill="none" fill-rule="evenodd">
        <g id="SC_dashboard_WF_myprofile1-Copy-5" transform="translate(-958.000000, -154.000000)" fill="#ED1C24" fill-rule="nonzero">
            <g id="PROFILE" transform="translate(958.000000, 154.000000)">
                <path d="M24.5432099,0 C38.0246914,0 49,10.9753086 49,24.5432099 C49,38.0246914 38.0246914,49 24.5432099,49 C10.9753086,49 0,38.0246914 0,24.5432099 C0,10.9753086 10.9753086,0 24.5432099,0 Z M24.5432099,12.0123457 C29.6419753,12.0123457 33.7901235,16.1604938 33.7901235,21.2592593 C33.7901235,24.7160494 31.8888889,27.7407407 29.1234568,29.2962963 C34.1358025,30.9382716 38.0246914,35.1728395 39.1481481,40.3580247 C43.4691358,36.4691358 46.1481481,30.7654321 46.1481481,24.5432099 C46.1481481,12.617284 36.4691358,2.9382716 24.5432099,2.9382716 C12.617284,2.9382716 2.9382716,12.617284 2.9382716,24.5432099 C2.9382716,30.7654321 5.61728395,36.4691358 9.85185185,40.3580247 C10.9753086,35.1728395 14.8641975,30.9382716 19.8765432,29.2962963 C17.1111111,27.7407407 15.2098765,24.7160494 15.2098765,21.2592593 C15.2098765,16.1604938 19.4444444,12.0123457 24.5432099,12.0123457 Z M36.5555556,42.4320988 L36.5555556,42.345679 C35.9506173,36.2098765 30.6790123,31.5432099 24.5432099,31.5432099 C18.3209877,31.5432099 13.1358025,36.2098765 12.5308642,42.345679 L12.5308642,42.4320988 C15.9012346,44.7654321 20.0493827,46.1481481 24.5432099,46.1481481 C28.9506173,46.1481481 33.0987654,44.7654321 36.5555556,42.4320988 Z M24.5432099,14.9506173 C21,14.9506173 18.1481481,17.8024691 18.1481481,21.2592593 C18.1481481,24.8024691 21,27.654321 24.5432099,27.654321 C28,27.654321 30.8518519,24.8024691 30.8518519,21.2592593 C30.8518519,17.8024691 28,14.9506173 24.5432099,14.9506173 Z" id="Shape"></path>
            </g>
        </g>
    </g>
</svg>